<?xml version="1.0" encoding="UTF-8" standalone="no"?>
<!-- Created with Inkscape (http://www.inkscape.org/) -->

<svg
   version="1.1"
   id="svg1"
   width="1365.3333"
   height="758.66669"
   viewBox="0 0 1365.3333 758.66669"
   sodipodi:docname="datalogger.svg"
   inkscape:version="1.3.2 (091e20e, 2023-11-25, custom)"
   xmlns:inkscape="http://www.inkscape.org/namespaces/inkscape"
   xmlns:sodipodi="http://sodipodi.sourceforge.net/DTD/sodipodi-0.dtd"
   xmlns="http://www.w3.org/2000/svg"
   xmlns:svg="http://www.w3.org/2000/svg">
  <defs
     id="defs1" />
  <sodipodi:namedview
     id="namedview1"
     pagecolor="#ffffff"
     bordercolor="#000000"
     borderopacity="0.25"
     inkscape:showpageshadow="2"
     inkscape:pageopacity="0.0"
     inkscape:pagecheckerboard="0"
     inkscape:deskcolor="#d1d1d1"
     inkscape:zoom="0.6049805"
     inkscape:cx="682.66663"
     inkscape:cy="378.52459"
     inkscape:window-width="1920"
     inkscape:window-height="992"
     inkscape:window-x="-8"
     inkscape:window-y="-8"
     inkscape:window-maximized="1"
     inkscape:current-layer="g1" />
  <g
     inkscape:groupmode="layer"
     inkscape:label="Image"
     id="g1">
    <path
       style="fill:#000000"
       d="m 143.99999,694.19919 c -17.31166,-3.79781 -31.90446,-15.50708 -40.09372,-32.17121 l -4.572943,-9.30537 V 418.02797 183.33334 l 3.142533,-7.79156 c 6.32324,-15.67782 21.08584,-29.24013 37.26865,-34.23849 8.04802,-2.48578 12.57107,-2.63662 79.06259,-2.63662 l 70.52622,0 v -15.92565 c 0,-14.71346 0.23431,-16.19806 3.07845,-19.50457 2.35649,-2.73958 4.63775,-3.728741 9.72724,-4.217777 5.78556,-0.555919 7.20353,-0.172079 10.92155,2.956427 l 4.27275,3.59529 0,16.54814 v 16.54814 h 13.33334 13.33333 V 110.23242 81.798173 l 3.28982,-3.090628 c 2.21976,-2.085359 5.4525,-3.298434 9.93881,-3.729511 6.04324,-0.580679 7.01896,-0.268899 10.71017,3.422312 l 4.0612,4.061195 0,28.102569 v 28.10256 h 12.66666 12.66667 V 92.086802 c 0,-26.43244 0.55194,-48.031574 1.27605,-49.93614 2.49704,-6.567703 13.62578,-9.499347 21.19725,-5.583988 6.61921,3.422925 6.86003,5.366688 6.86003,55.368901 v 46.476765 l 24.33333,0.55124 c 21.38312,0.48441 25.23551,0.91593 31.77444,3.55923 14.85757,6.006 27.18458,18.29959 33.46017,33.36942 l 3.09872,7.44111 0.37061,227.33334 c 0.23055,141.41776 -0.11583,230.4945 -0.91651,235.6978 -1.74424,11.33508 -6.65079,21.50767 -14.36084,29.77386 -7.50652,8.04798 -13.92898,12.36738 -24.28505,16.33282 l -7.47487,2.86219 -160.66666,0.23731 c -121.26631,0.17912 -162.46501,-0.15721 -167.99999,-1.37147 z M 470.0913,667.37165 c 8.13602,-2.42732 15.71781,-8.54792 19.61403,-15.83393 l 2.96131,-5.5377 -0.50019,-228.66668 c -0.43448,-198.62862 -0.76116,-229.32634 -2.48683,-233.68846 -2.93878,-7.42861 -12.43409,-15.18745 -20.7857,-16.98449 -4.90384,-1.05517 -52.31198,-1.3646 -164.22727,-1.07189 -150.60416,0.3939 -157.53292,0.51797 -161.99999,2.9008 -6.55625,3.49724 -10.47025,7.33019 -13.79642,13.5107 l -2.87025,5.33334 -0.39443,227.33334 c -0.26442,152.3935 0.0559,228.89157 0.97171,232.0603 1.66872,5.77384 9.57231,15.25909 15.09382,18.11437 2.23857,1.15761 6.82835,2.5713 10.19951,3.14155 3.37117,0.57024 74.87049,1.10737 158.88738,1.19363 130.91256,0.13439 153.69831,-0.12372 159.33332,-1.80488 z m -278.06503,-31.7509 c -4.61715,-2.33616 -6.91019,-7.33964 -6.17914,-13.48307 1.18079,-9.92293 3.24074,-10.74685 28.06661,-11.22584 l 21.84681,-0.4215 4.42275,3.95172 c 3.6803,3.28835 4.42275,4.89284 4.42275,9.55796 0,4.6394 -0.74572,6.27252 -4.32407,9.46978 l -4.32406,3.86355 -20.3123,-0.0197 c -13.61083,-0.0132 -21.40337,-0.57171 -23.61935,-1.69294 z m 86.84403,-1.65397 c -3.56614,-3.00071 -4.20365,-4.44467 -4.20365,-9.52119 0,-4.83616 0.74762,-6.73165 3.89744,-9.88147 l 3.89743,-3.89744 h 20.14539 c 23.90001,0 28.2674,1.21581 30.68534,8.54225 1.92675,5.8381 0.8228,11.66912 -2.83724,14.98616 -2.38271,2.15943 -5.54711,2.52447 -25.0541,2.89021 l -22.32695,0.41862 z M 164.14675,568.80601 c -7.0391,-3.90148 -6.71543,4.91802 -6.76618,-184.37037 l -0.0473,-176.23103 3.45186,-4.1023 3.45186,-4.1023 145.09627,0 145.09628,0 3.45186,4.1023 3.45186,4.1023 v 175.83496 c 0,133.48617 -0.38365,176.67698 -1.59292,179.33104 -3.4754,7.62766 3.332,7.30016 -150.6742,7.24882 -115.08456,-0.0384 -142.332,-0.37932 -144.91944,-1.81342 z m 270.19198,-183.806 -0.33876,-159 H 308.99998 c -68.74999,0 -124.99999,0.45 -124.99999,1 0,0.55 0,72.1 0,159 v 158 H 309.33873 434.67748 Z M 313.6973,523.29734 c -4.26514,-4.26514 -4.64189,-5.24195 -4.04937,-10.49879 0.97413,-8.64248 15.21352,-28.79854 20.34492,-28.79854 2.4483,0 5.1636,5.82532 8.15135,17.48765 4.0586,15.8423 -1.3779,26.51235 -13.50832,26.51235 -5.35806,0 -6.8979,-0.662 -10.93858,-4.70267 z m 42.20011,-4.5281 c -6.77864,-6.77864 -4.71473,-15.78949 6.46451,-28.22349 9.42626,-10.48428 12.26501,-8.39643 16.21693,11.92728 2.28054,11.7282 -3.39055,20.19365 -13.52791,20.19365 -4.03158,0 -6.16407,-0.90798 -9.15353,-3.89744 z m -60.05438,-48.57792 c -13.44893,-4.89541 -21.69487,-14.37811 -23.1841,-26.66133 -2.08589,-17.20449 11.22469,-33.33813 28.62602,-34.69735 l 7.14918,-0.55842 2.5475,-8.2985 c 8.4533,-27.53671 46.60707,-35.84731 67.70661,-14.74777 4.41991,4.41992 6.63062,7.9719 7.76468,12.47564 1.56142,6.20099 1.6668,6.29642 6.9527,6.29642 20.23631,0 34.45872,28.8414 24.11815,48.90881 -3.09056,5.99769 -9.66336,12.46959 -16.19046,15.94192 -4.2683,2.27068 -8.76411,2.5088 -52.66666,2.78949 -36.99831,0.23655 -49.10558,-0.0955 -52.82362,-1.44891 z m -32.90971,-81.12464 c -0.94398,-0.94398 -1.6,-5.48148 -1.6,-11.06667 0,-10.04021 1.25655,-12.66667 6.06001,-12.66667 4.89629,0 7.27332,4.09369 7.27332,12.52598 0,4.20713 -0.62111,8.80989 -1.38024,10.22835 -1.56433,2.92296 -7.8178,3.5143 -10.35309,0.97901 z m -44.26667,-19.73334 c -3.85489,-3.85489 -3.39759,-5.38031 3.71247,-12.38345 6.77901,-6.67708 9.48768,-7.55925 12.85896,-4.18798 3.45585,3.45585 2.40821,7.48494 -3.5157,13.52096 -6.22424,6.34204 -9.09371,7.01249 -13.05573,3.05047 z m 84.33299,-2.99403 c -6.19908,-6.31641 -7.04163,-10.0147 -3.09521,-13.58616 3.44147,-3.11449 6.33987,-1.97632 13.47122,5.28999 5.78251,5.89195 5.87689,6.12584 3.89974,9.66414 -3.23846,5.79553 -7.66124,5.37172 -14.27575,-1.36797 z m -44.99966,-7.77038 c -2.93333,-0.71928 -8.03333,-3.15273 -11.33333,-5.40766 -24.47829,-16.72634 -22.13559,-52.26961 4.35133,-66.01799 2.37344,-1.23197 8.67156,-2.52249 13.99583,-2.86783 8.87292,-0.57552 10.4091,-0.26921 18.4144,3.67179 13.88358,6.83486 20.86551,18.23028 20.87543,34.07141 0.01,15.42704 -7.38061,27.45343 -20.7247,33.7259 -7.30433,3.43344 -18.19229,4.63567 -25.57896,2.82438 z m -57.99999,-33.23559 c -5.92228,-5.92227 -1.00777,-12 9.70332,-12 8.11872,0 12.96334,2.69162 12.96334,7.20229 0,5.06478 -3.99858,7.46438 -12.43832,7.46438 -5.7839,0 -8.18862,-0.62694 -10.22834,-2.66667 z m 112.74226,-0.29667 c -2.74316,-3.91642 -2.61817,-5.82743 0.59106,-9.03666 1.99295,-1.99295 4.44445,-2.66667 9.70333,-2.66667 8.19032,0 12.96334,2.69286 12.96334,7.3137 0,5.42979 -3.31812,7.35297 -12.6863,7.35297 -7.26785,0 -8.79583,-0.42832 -10.57143,-2.96334 z m -90.63833,-39.59689 c -5.67714,-5.81392 -6.71936,-11.38391 -2.68243,-14.33579 3.75178,-2.74337 5.51353,-2.19271 11.94162,3.7325 4.20946,3.88014 5.97021,6.55411 5.97021,9.06666 0,8.39717 -7.76519,9.18067 -15.2294,1.53663 z m 75.83204,1.98297 c -2.62035,-3.99915 -1.52705,-6.40605 5.99793,-13.20441 5.88809,-5.31954 7.63696,-5.80106 11.31125,-3.11435 4.03694,2.95188 2.99471,8.52187 -2.68242,14.33579 -6.12418,6.27173 -11.35225,6.9805 -14.62676,1.98297 z m -34.56278,-12.24002 c -1.66147,-1.66147 -2.0622,-4.30869 -1.7619,-11.63903 0.36775,-8.97696 0.58417,-9.55692 4.015,-10.75924 2.87018,-1.00586 4.19072,-0.76003 6.33333,1.17901 3.74109,3.38564 3.92481,17.85451 0.26872,21.16322 -3.08069,2.78799 -6.10406,2.80712 -8.85515,0.056 z m 968.62672,194.3074 c -13.244,-4.32252 -20.6674,-11.78592 -23.3954,-23.52178 l -1.6974,-7.30167 10.8798,0.0514 c 10.7576,0.0508 10.9096,0.099 13.549,4.29525 3.4907,5.54999 7.8274,7.61408 15.9974,7.61408 12.7389,0 17.8872,-5.38272 19.3162,-20.19596 0.5181,-5.3706 0.7423,-10.00633 0.4982,-10.30162 -0.2441,-0.29528 -1.6586,1.00756 -3.1434,2.8952 -4.3041,5.47177 -12.817,8.00832 -25.0155,7.45378 -8.9093,-0.40501 -11.5355,-1.09947 -17.0493,-4.50845 -12.5573,-7.76368 -18.4569,-20.98907 -18.4249,-41.30364 0.032,-20.29845 6.9817,-35.21421 19.9478,-42.81286 11.768,-6.8965 34.0955,-5.70881 41.2476,2.19411 3.3135,3.66145 4.6233,3.27015 4.6233,-1.38125 v -4 h 10.7532 10.7532 l -0.4393,50.33333 c -0.4186,47.97182 -0.5745,50.66545 -3.3217,57.41211 -4.0799,10.01949 -8.3561,15.06963 -16.5851,19.58661 -6.4778,3.55572 -8.4949,3.96132 -21.1603,4.25485 -7.7,0.17845 -15.5,-0.1651 -17.3334,-0.76345 z m 26.4857,-62.43828 c 6.4802,-4.74762 8.3535,-10.38015 7.8883,-23.71851 -0.6126,-17.56781 -5.1665,-24.3246 -17.2217,-25.55268 -8.1596,-0.83124 -14.339,2.63311 -18.2284,10.21935 -2.6763,5.21994 -3.023,7.59117 -2.6667,18.23876 0.4614,13.79071 2.4129,17.90905 10.5043,22.16731 5.63,2.96296 14.6795,2.34163 19.7242,-1.35423 z m -658.57984,24.527 c -12.62148,-3.54532 -23.44366,-12.20882 -29.08386,-23.28258 -12.35553,-24.25837 -9.84445,-66.73706 5.11769,-86.57341 16.51783,-21.89883 56.00739,-25.01771 76.31004,-6.02695 7.33102,6.8573 12.67282,16.82539 13.9175,25.97077 l 0.86196,6.33333 h -12.01456 -12.01457 l -0.8623,-4.31152 c -2.36168,-11.80841 -14.10442,-20.54342 -26.07135,-19.39355 -20.31908,1.9524 -29.28384,18.25245 -27.79144,50.53139 0.74518,16.11742 4.05298,25.51063 11.19035,31.77732 13.89913,12.2036 36.71407,6.7808 42.50693,-10.10333 l 1.77277,-5.16698 11.46085,-0.38524 11.46086,-0.38524 -0.001,5.05191 c -0.003,12.01268 -11.87467,28.11945 -25.16908,34.14645 -7.63888,3.46307 -31.95041,4.52556 -41.59074,1.81763 z m 336.76085,0.14576 c -11.63781,-4.06802 -17.17986,-12.18735 -17.10651,-25.06172 0.0621,-10.89714 3.72279,-18.6015 11.18478,-23.53961 4.84157,-3.204 7.02768,-3.63923 22.64438,-4.50825 20.09575,-1.11828 21.89504,-1.96087 20.84854,-9.76314 -0.96359,-7.18413 -5.68545,-11.65532 -13.08092,-12.38651 -7.4613,-0.7377 -11.84751,1.57635 -14.93341,7.87849 l -2.44315,4.98947 h -9.89019 c -11.12194,0 -11.42945,-0.40322 -8.46069,-11.09437 4.60821,-16.59513 28.20937,-25.42265 50.37269,-18.84085 8.84691,2.62725 17.99371,11.11297 20.05109,18.60189 0.88764,3.23106 1.46811,18.86668 1.47262,39.66667 l 0.007,34.33333 h -10 -9.99999 l -0.007,-5.66667 -0.007,-5.66666 -2.99338,3.63283 c -4.7543,5.76995 -13.54839,8.98703 -24.32671,8.89929 -5.13333,-0.0418 -11.13333,-0.70518 -13.33333,-1.47419 z M 966.445,412.49535 c 3.80995,-2.49353 8.15268,-11.68447 8.19233,-17.33822 l 0.0293,-4.17622 -5,1.78436 c -2.75,0.9814 -8.6165,1.8107 -13.03666,1.84288 -4.90227,0.0357 -9.15122,0.8392 -10.89442,2.06018 -3.5433,2.48183 -5.08577,8.8965 -3.0527,12.69532 3.41715,6.38501 16.21432,8.07159 23.76217,3.1317 z m 163.017,17.93235 c -8.5261,-3.27418 -17.9208,-12.11151 -21.5163,-20.23986 -6.0149,-13.59764 -6.024,-34.7576 -0.021,-48.32903 3.4264,-7.74584 11.3872,-16.10711 19.3237,-20.29571 6.0766,-3.20702 8.1503,-3.56309 20.7512,-3.56309 12.5858,0 14.6789,0.35835 20.7202,3.54734 15.8399,8.3613 23.5772,22.70378 23.6209,43.78599 0.051,24.40771 -10.0108,40.34949 -29.09,46.09146 -9.3427,2.81175 -25.0799,2.34735 -33.789,-0.9971 z m 28.962,-18.46824 c 6.9065,-4.21077 10.1794,-12.86087 10.0763,-26.6309 -0.1515,-20.22949 -6.2571,-28.66188 -20.7528,-28.66188 -7.0302,0 -8.1088,0.40766 -12.3466,4.66666 -10.4407,10.49296 -11.3637,37.31102 -1.6455,47.81248 3.8251,4.13336 6.9766,5.33502 14.2445,5.43136 3.7935,0.0503 7.627,-0.91239 10.4241,-2.61772 z m -474.43724,19.37388 c -0.007,-0.36666 -0.0191,-29.61666 -0.0264,-65 l -0.0132,-64.33333 h 11.02641 11.0264 l 0.34601,65 0.34602,65 h -11.34601 c -6.24031,0 -11.35196,-0.3 -11.35922,-0.66667 z m 42.67986,-46 v -46.66666 h 11.33334 11.33333 v 46.66666 46.66667 h -11.33333 -11.33334 z m 42.66667,0 v -46.66666 h 11.33333 11.33333 v 4.23241 4.23242 l 3.03797,-2.85401 c 4.51193,-4.23875 13.54383,-6.94416 23.18278,-6.94416 9.68177,0 16.12893,2.65009 22.33145,9.1793 l 3.88553,4.09018 5.55998,-5.12502 c 7.22877,-6.66324 13.23759,-8.54187 25.36284,-7.92957 8.28074,0.41816 10.68725,1.11538 15.48256,4.48565 3.42319,2.40591 7.03042,6.61684 9.08403,10.60433 3.37367,6.55067 3.40995,6.96103 3.79982,42.9878 l 0.39363,36.374 h -11.39363 -11.39363 v -30.4677 c 0,-18.8598 -0.56306,-32.08291 -1.47789,-34.70718 -2.78726,-7.99555 -15.91,-10.97906 -23.17054,-5.26792 -6.67043,5.24696 -7.35157,9.05188 -7.35157,41.06664 v 29.37616 h -11.33333 -11.33333 v -29.97302 c 0,-39.47965 -1.57067,-43.67642 -16.30348,-43.5623 -7.26771,0.0563 -11.74712,2.34037 -15.34462,7.8243 -2.04236,3.11334 -2.40744,7.6734 -2.77389,34.6481 l -0.42199,31.06292 h -11.24468 -11.24467 z m 249.33331,-16.66666 v -63.33334 h 11.3333 11.3334 v 52 52 h 26.6666 26.6667 v 11.33334 11.33333 h -38 -38 z m -286.24702,-41.2329 c -4.45036,-1.99006 -8.41962,-8.00885 -8.41962,-12.7671 0,-4.89615 4.02233,-10.81208 8.67231,-12.75496 6.01296,-2.51238 11.94887,-1.143 16.02046,3.69581 9.53941,11.33694 -2.77983,27.86002 -16.27315,21.82625 z"
       id="path1" />
  </g>
</svg>
